<svg width="900" height="900" viewBox="0 0 900 900" fill="none" xmlns="http://www.w3.org/2000/svg">
  <defs>
    <linearGradient id="bg" x1="0" y1="0" x2="900" y2="900" gradientUnits="userSpaceOnUse">
      <stop stop-color="#EEF2FF"/>
      <stop offset="1" stop-color="#ECFEFF"/>
    </linearGradient>
    <linearGradient id="accent" x1="180" y1="120" x2="720" y2="780" gradientUnits="userSpaceOnUse">
      <stop stop-color="#4F46E5"/>
      <stop offset="1" stop-color="#06B6D4"/>
    </linearGradient>
    <filter id="shadow" x="0" y="0" width="900" height="900" filterUnits="userSpaceOnUse">
      <feDropShadow dx="0" dy="24" stdDeviation="35" flood-color="#0F172A" flood-opacity="0.16"/>
    </filter>
  </defs>
  <rect width="900" height="900" rx="64" fill="url(#bg)"/>
  <circle cx="760" cy="150" r="92" fill="#C7D2FE" opacity="0.8"/>
  <circle cx="132" cy="742" r="110" fill="#99F6E4" opacity="0.75"/>
  <g filter="url(#shadow)">
    <circle cx="450" cy="420" r="206" fill="#FFFFFF"/>
    <circle cx="450" cy="390" r="116" fill="url(#accent)"/>
    <path d="M282 686C295 602 365 542 450 542C535 542 605 602 618 686" fill="url(#accent)"/>
  </g>
  <circle cx="450" cy="390" r="114" fill="none" stroke="#FFFFFF" stroke-width="10" opacity="0.7"/>
  <path d="M390 384C390 351 417 324 450 324C483 324 510 351 510 384C510 417 483 444 450 444C417 444 390 417 390 384Z" fill="#FFFFFF"/>
  <path d="M334 298C352 250 397 214 450 214C503 214 548 250 566 298" stroke="#FFFFFF" stroke-width="20" stroke-linecap="round" opacity="0.9"/>
  <g opacity="0.9">
    <rect x="248" y="162" width="156" height="56" rx="28" fill="#FFFFFF"/>
    <rect x="496" y="162" width="156" height="56" rx="28" fill="#FFFFFF"/>
    <rect x="556" y="666" width="130" height="50" rx="25" fill="#FFFFFF"/>
    <rect x="214" y="666" width="130" height="50" rx="25" fill="#FFFFFF"/>
  </g>
  <text x="450" y="802" text-anchor="middle" fill="#0F172A" font-family="Inter, Arial, sans-serif" font-size="54" font-weight="800">Harsh Goyal</text>
  <text x="450" y="852" text-anchor="middle" fill="#64748B" font-family="Inter, Arial, sans-serif" font-size="28" font-weight="600">Full Stack Web Developer</text>
</svg>
